<svg width="3186" height="1273" xmlns="http://www.w3.org/2000/svg" xmlns:xlink="http://www.w3.org/1999/xlink" xml:space="preserve" overflow="hidden"><defs><clipPath id="clip0"><rect x="141" y="63" width="3186" height="1273"/></clipPath></defs><g clip-path="url(#clip0)" transform="translate(-141 -63)"><path d="M141 262.669C141 152.395 230.395 62.9999 340.668 62.9999L3127.33 62.9999C3237.61 62.9999 3327 152.395 3327 262.669L3327 1061.33C3327 1171.6 3237.61 1261 3127.33 1261L340.668 1261C230.395 1261 141 1171.6 141 1061.33Z" fill="#CDCBFF" fill-rule="evenodd"/><path d="M507.07 1125.5 653.003 1125.5 657.5 300.5 372.5 452.761Z" stroke="#156082" stroke-width="6.875" stroke-miterlimit="8" fill="#FFC20D" fill-rule="evenodd"/><path d="M672.5 1125.5 937.465 1125.5 1035.5 371.406 691.392 213.5Z" stroke="#156082" stroke-width="6.875" stroke-miterlimit="8" fill="#FFC20D" fill-rule="evenodd"/><path d="M952 1125 1040.23 520 1295 520 1206.77 1125Z" stroke="#156082" stroke-width="6.49606" stroke-miterlimit="8" fill="#FFC20D" fill-rule="evenodd"/><text fill="#156082" font-family="Arial Rounded MT Bold,Arial Rounded MT Bold_MSFontService,sans-serif" font-weight="700" font-size="440" transform="matrix(1 0 0 1 1349.62 976)">worklog</text></g></svg>