<svg width="3187" height="1273" xmlns="http://www.w3.org/2000/svg" xmlns:xlink="http://www.w3.org/1999/xlink" xml:space="preserve" overflow="hidden"><defs><clipPath id="clip0"><rect x="170" y="580" width="3187" height="1273"/></clipPath></defs><g clip-path="url(#clip0)" transform="translate(-170 -580)"><path d="M170 779.669C170 669.395 259.395 580 369.669 580L3157.33 580C3267.61 580 3357 669.395 3357 779.669L3357 1578.33C3357 1688.6 3267.61 1778 3157.33 1778L369.669 1778C259.395 1778 170 1688.6 170 1578.33Z" fill="#370EA3" fill-rule="evenodd"/><path d="M541.042 1642 687.487 1642 692 817 406 969.261Z" fill="#FFC20D" fill-rule="evenodd"/><path d="M702 1642 966.966 1642 1065 887.906 720.892 730Z" fill="#FFC20D" fill-rule="evenodd"/><path d="M982 1642 1069.98 1037 1324 1037 1236.02 1642Z" fill="#FFC20D" fill-rule="evenodd"/><text fill="#FFFFFF" font-family="Arial Rounded MT Bold,Arial Rounded MT Bold_MSFontService,sans-serif" font-weight="700" font-size="440" transform="matrix(1 0 0 1 1378.95 1493)">worklog</text></g></svg>